PathFileType	4	(X/Y/Z)	/Users/itak/Documents/Research/Walk-IL/dataset/trc/00004_00004.trc
DataRate	CameraRate	NumFrames	NumMarkers	Units	OrigDataRate	OrigDataStartFrame	OrigNumFrames
100.000000	100.000000	4	53	mm	100.000000	70	566
Frame#	Time	RPSI			LPSI			L3			STRN			T10			C7			CLAV			RBAK			LBAK			LSHO			LUPA			LAEL			LAOL			LWTS			LWPS			LFRA			LIFD			LHPS			LHTS			RSHO			RUPA			RAEL			RAOL			RWTS			RWPS			RFRA			RIFD			RHTS			RHPS			RBHD			LFHD			RFHD			LBHD			LHIP			RHIP			RASI			LASI			LKNE			LTHI			LANK			LTIP			LTOE			LMT1			LMT5			LHEE			RKNE			RTHI			RANK			RTIP			RTOE			RMT1			RMT5			RHEE			
		X1	Y1	Z1	X2	Y2	Z2	X3	Y3	Z3	X4	Y4	Z4	X5	Y5	Z5	X6	Y6	Z6	X7	Y7	Z7	X8	Y8	Z8	X9	Y9	Z9	X10	Y10	Z10	X11	Y11	Z11	X12	Y12	Z12	X13	Y13	Z13	X14	Y14	Z14	X15	Y15	Z15	X16	Y16	Z16	X17	Y17	Z17	X18	Y18	Z18	X19	Y19	Z19	X20	Y20	Z20	X21	Y21	Z21	X22	Y22	Z22	X23	Y23	Z23	X24	Y24	Z24	X25	Y25	Z25	X26	Y26	Z26	X27	Y27	Z27	X28	Y28	Z28	X29	Y29	Z29	X30	Y30	Z30	X31	Y31	Z31	X32	Y32	Z32	X33	Y33	Z33	X34	Y34	Z34	X35	Y35	Z35	X36	Y36	Z36	X37	Y37	Z37	X38	Y38	Z38	X39	Y39	Z39	X40	Y40	Z40	X41	Y41	Z41	X42	Y42	Z42	X43	Y43	Z43	X44	Y44	Z44	X45	Y45	Z45	X46	Y46	Z46	X47	Y47	Z47	X48	Y48	Z48	X49	Y49	Z49	X50	Y50	Z50	X51	Y51	Z51	X52	Y52	Z52	X53	Y53	Z53	

71	0.7000000000000001	-1236.2939453125	1070.85400390625	-183.8257293701172	-1237.753295898438	1065.307373046875	-346.47216796875	-1242.587524414062	1132.09716796875	-273.9587707519531	-1024.10693359375	1329.095581054688	-268.9583129882812	-1273.242431640625	1267.974609375	-275.9271850585938	-1238.067016601562	1537.1259765625	-291.1786499023438	-1071.983520507812	1453.682006835938	-277.4296569824219	-1282.930419921875	1400.130859375	-209.8668975830078	-1248.937744140625	1492.409790039062	-388.41650390625	-1143.86083984375	1503.74560546875	-458.5317687988281	-1165.747924804688	1375.9814453125	-534.8895263671875	-1159.178466796875	1156.27587890625	-550.4745483398438	-1220.511962890625	1146.411376953125	-464.2473449707031	-1075.218139648438	905.4602661132812	-480.5487365722656	-1149.293090820312	889.9471435546875	-527.1685180664062	-1145.049682617188	1040.54345703125	-551.2105102539062	-1047.25634765625	721.560791015625	-456.0843505859375	-1115.876831054688	800.467041015625	-521.16259765625	-1049.978637695312	813.81201171875	-491.2343444824219	-1165.90478515625	1532.896118164062	-112.9417495727539	-1177.9248046875	1460.888427734375	-39.66199111938477	-1197.087524414062	1189.460205078125	-17.262939453125	-1197.990478515625	1162.257080078125	-114.0129928588867	-1063.01513671875	932.1917724609375	-47.85551834106445	-1129.20556640625	917.6575317382812	16.76470184326172	-1181.355712890625	1115.0009765625	-2.204674005508423	-1046.781494140625	746.0043334960938	-62.4884147644043	-1031.329467773438	822.3230590820312	-32.52563095092773	-1088.1083984375	817.4274291992188	16.17629623413086	-1191.011108398438	1725.763549804688	-354.933837890625	-1004.631958007812	1740.506469726562	-241.4869079589844	-1009.541931152344	1736.424926757812	-339.2348327636719	-1177.748657226562	1727.323608398438	-210.5828399658203	-1142.217529296875	962.3472290039062	-451.962158203125	-1120.855590820312	966.5279541015625	-80.2484130859375	-1019.227844238281	998.2770385742188	-155.8719482421875	-1022.689758300781	1011.750549316406	-390.6172485351562	-1111.118408203125	516.5709228515625	-399.5156555175781	-1128.983276367188	653.2078857421875	-435.3730163574219	-1215.154174804688	41.42238998413086	-390.3384704589844	-1197.305419921875	287.7201232910156	-412.7803955078125	-994.420654296875	41.26250076293945	-328.2921142578125	-1053.996948242188	50.04046630859375	-310.4606323242188	-1090.3857421875	39.81158828735352	-410.5755920410156	-1284.50830078125	48.82209396362305	-335.8929138183594	-1112.205078125	529.333984375	-124.1341857910156	-1098.670654296875	797.80419921875	-81.03002166748047	-1230.142944335938	46.68440246582031	-140.6118469238281	-1138.371215820312	405.7010498046875	-123.2349166870117	-997.3347778320312	45.71240234375	-175.5388336181641	-1059.470947265625	50.83337020874023	-208.566650390625	-1081.245971679688	45.57477188110352	-113.5330963134766	-1285.184326171875	46.31452178955078	-186.0635070800781	
72	0.71	-1236.1552734375	1070.780517578125	-183.6304016113281	-1237.620971679688	1065.220092773438	-346.3036499023438	-1242.395141601562	1132.02587890625	-273.7191467285156	-1024.060302734375	1329.086181640625	-268.799072265625	-1273.125	1267.927734375	-275.715087890625	-1238.007080078125	1537.137817382812	-290.9459533691406	-1071.806762695312	1453.671020507812	-277.2787475585938	-1282.82958984375	1400.0673828125	-209.6256866455078	-1248.80029296875	1492.312622070312	-388.1493225097656	-1143.843383789062	1503.708740234375	-458.3388977050781	-1165.772338867188	1375.921752929688	-534.6693115234375	-1159.24267578125	1156.229370117188	-550.296630859375	-1220.527587890625	1146.343627929688	-464.0429077148438	-1075.1796875	905.3824462890625	-480.4327697753906	-1149.273193359375	889.8951416015625	-527.0277709960938	-1145.025268554688	1040.494873046875	-551.0538330078125	-1047.285278320312	721.5535888671875	-456.08935546875	-1115.963500976562	800.4237060546875	-521.0528564453125	-1050.02880859375	813.7340698242188	-491.130859375	-1165.804077148438	1532.84912109375	-112.7383651733398	-1177.791748046875	1460.808471679688	-39.45309066772461	-1196.869506835938	1189.387451171875	-17.05033111572266	-1197.835083007812	1162.197265625	-113.8252868652344	-1062.885131835938	932.0578002929688	-47.67730712890625	-1129.033447265625	917.5874633789062	17.00038528442383	-1181.169067382812	1114.940063476562	-2.015137910842896	-1046.602783203125	745.9148559570312	-62.18945693969727	-1031.246459960938	822.1536254882812	-32.28529357910156	-1088.06103515625	817.380126953125	16.42068099975586	-1190.751831054688	1725.795166015625	-354.6160583496094	-1004.278686523438	1740.24658203125	-241.2316436767578	-1009.205444335938	1736.289916992188	-338.9639587402344	-1177.335205078125	1727.2744140625	-210.2650909423828	-1141.996948242188	962.3080444335938	-451.7587280273438	-1120.694946289062	966.4925537109375	-80.02784729003906	-1019.067321777344	998.244384765625	-155.6390228271484	-1022.362854003906	1011.836547851562	-390.3717346191406	-1111.085327148438	516.5676879882812	-399.3359680175781	-1128.94189453125	653.2342529296875	-435.2139282226562	-1215.147827148438	41.42378616333008	-390.3436584472656	-1197.250366210938	287.7406921386719	-412.7475280761719	-994.4164428710938	41.25110244750977	-328.2565002441406	-1053.99853515625	50.0382080078125	-310.4565124511719	-1090.388305664062	39.80596542358398	-410.5786743164062	-1284.51123046875	48.82056045532227	-335.8934020996094	-1112.113159179688	529.3170776367188	-123.9956130981445	-1098.576538085938	797.758056640625	-80.85846710205078	-1230.134155273438	46.67593383789062	-140.6197814941406	-1138.36279296875	405.6591186523438	-123.1564331054688	-997.3191528320312	45.68193817138672	-175.5440368652344	-1059.4228515625	50.80065536499023	-208.5462493896484	-1081.25537109375	45.55723190307617	-113.5156555175781	-1285.180541992188	46.32223510742188	-186.0594482421875	
73	0.72	-1236.001220703125	1070.703491210938	-183.4198455810547	-1237.506713867188	1065.145874023438	-346.1390686035156	-1242.218872070312	1131.954467773438	-273.4757080078125	-1024.010009765625	1329.074584960938	-268.6226501464844	-1272.996337890625	1267.886352539062	-275.4911804199219	-1237.936767578125	1537.149169921875	-290.6917724609375	-1071.628540039062	1453.664184570312	-277.1195373535156	-1282.735961914062	1400.006713867188	-209.3880004882812	-1248.63671875	1492.212036132812	-387.8656005859375	-1143.808837890625	1503.65185546875	-458.1294860839844	-1165.767211914062	1375.848754882812	-534.4425048828125	-1159.266967773438	1156.17578125	-550.0962524414062	-1220.506469726562	1146.270385742188	-463.8143005371094	-1075.125610351562	905.2818603515625	-480.287841796875	-1149.224365234375	889.8296508789062	-526.8645629882812	-1144.976196289062	1040.434936523438	-550.8751831054688	-1047.328857421875	721.5283203125	-456.0974426269531	-1116.049438476562	800.3751831054688	-520.9381103515625	-1050.070068359375	813.6397094726562	-491.0103149414062	-1165.699829101562	1532.80908203125	-112.5323486328125	-1177.648559570312	1460.737548828125	-39.22520446777344	-1196.65625	1189.324584960938	-16.80777168273926	-1197.718872070312	1162.13671875	-113.6195831298828	-1062.755493164062	931.9622802734375	-47.50859832763672	-1128.788818359375	917.5316772460938	17.25716018676758	-1180.992309570312	1114.882568359375	-1.802971243858337	-1046.254638671875	745.8903198242188	-61.85865783691406	-1031.058471679688	822.0194091796875	-32.04035568237305	-1087.91064453125	817.3555908203125	16.64195823669434	-1190.45751953125	1725.823852539062	-354.2776184082031	-1003.907836914062	1739.972045898438	-240.9548034667969	-1008.836242675781	1736.127685546875	-338.6882934570312	-1176.895385742188	1727.222778320312	-209.9420623779297	-1141.784790039062	962.2651977539062	-451.5448303222656	-1120.553833007812	966.45703125	-79.81510925292969	-1018.892639160156	998.217041015625	-155.4131622314453	-1022.104309082031	1011.877746582031	-390.1296081542969	-1111.080810546875	516.5654296875	-399.1671142578125	-1128.951904296875	653.2683715820312	-435.0714721679688	-1215.142578125	41.4249153137207	-390.347900390625	-1197.214233398438	287.7615966796875	-412.712158203125	-994.412109375	41.24029159545898	-328.2223815917969	-1053.998657226562	50.03593826293945	-310.4510803222656	-1090.390747070312	39.80252075195312	-410.5781860351562	-1284.512573242188	48.81585693359375	-335.893798828125	-1111.97412109375	529.3049926757812	-123.8529739379883	-1098.4208984375	797.7188720703125	-80.70745849609375	-1230.125	46.66641616821289	-140.6237335205078	-1138.330200195312	405.6092224121094	-123.074592590332	-997.3021850585938	45.65151596069336	-175.5481109619141	-1059.378662109375	50.77011871337891	-208.5282135009766	-1081.264404296875	45.53720474243164	-113.4992980957031	-1285.178100585938	46.3323860168457	-186.0545349121094	
74	0.73	-1235.82373046875	1070.626342773438	-183.1885070800781	-1237.405151367188	1065.084838867188	-345.97265625	-1242.061157226562	1131.885620117188	-273.2291870117188	-1023.949462890625	1329.057739257812	-268.4271240234375	-1272.852294921875	1267.851806640625	-275.2499084472656	-1237.851318359375	1537.151733398438	-290.4158020019531	-1071.457153320312	1453.659057617188	-276.9453125	-1282.648193359375	1399.949951171875	-209.1510314941406	-1248.455810546875	1492.115356445312	-387.5666198730469	-1143.75439453125	1503.577758789062	-457.9010620117188	-1165.729370117188	1375.767822265625	-534.2070922851562	-1159.241455078125	1156.117431640625	-549.871337890625	-1220.44580078125	1146.196411132812	-463.5627746582031	-1075.0595703125	905.1636962890625	-480.1091613769531	-1149.144653320312	889.7540893554688	-526.678466796875	-1144.898315429688	1040.366088867188	-550.6727294921875	-1047.388793945312	721.4822998046875	-456.1019897460938	-1116.128784179688	800.3240356445312	-520.8145141601562	-1050.0849609375	813.5365600585938	-490.870361328125	-1165.587646484375	1532.77490234375	-112.3185577392578	-1177.493408203125	1460.67724609375	-38.97662734985352	-1196.44482421875	1189.273071289062	-16.53597068786621	-1197.632690429688	1162.07763671875	-113.3950119018555	-1062.611450195312	931.9074096679688	-47.34071350097656	-1128.48046875	917.4916381835938	17.52982711791992	-1180.81640625	1114.830200195312	-1.564745903015137	-1045.753173828125	745.9323120117188	-61.50790786743164	-1030.773315429688	821.92578125	-31.79086875915527	-1087.654174804688	817.3530883789062	16.84432029724121	-1190.124145507812	1725.854370117188	-353.9243774414062	-1003.522155761719	1739.688842773438	-240.6620941162109	-1008.439819335938	1735.935302734375	-338.4141540527344	-1176.436889648438	1727.174926757812	-209.6198272705078	-1141.586791992188	962.2220458984375	-451.32275390625	-1120.403930664062	966.4232788085938	-79.59841156005859	-1018.700134277344	998.1943969726562	-155.1950225830078	-1021.892944335938	1011.889465332031	-389.8956909179688	-1111.09765625	516.565185546875	-399.0089721679688	-1129.001342773438	653.3065185546875	-434.9421691894531	-1215.138549804688	41.42554473876953	-390.3513793945312	-1197.192749023438	287.7833557128906	-412.6748657226562	-994.4102783203125	41.23141098022461	-328.1910400390625	-1053.996704101562	50.03348541259766	-310.444580078125	-1090.392456054688	39.80062484741211	-410.5748596191406	-1284.51220703125	48.80801391601562	-335.8945007324219	-1111.808227539062	529.2954711914062	-123.7066802978516	-1098.200805664062	797.6856079101562	-80.57207489013672	-1230.115966796875	46.65681076049805	-140.6229095458984	-1138.281616210938	405.5569763183594	-122.9839553833008	-997.2857666015625	45.62244415283203	-175.5511474609375	-1059.341430664062	50.74481201171875	-208.5132904052734	-1081.270629882812	45.51686859130859	-113.486213684082	-1285.177368164062	46.34603881835938	-186.0480499267578	
